<svg width="10" height="10" viewBox="0 0 10 10" fill="none" xmlns="http://www.w3.org/2000/svg">
<mask id="path-1-inside-1_20_173" fill="white">
<path d="M4 5.86649L4.21273 6.08273H5.5L9 1.08273V4.08273H10V0H6V1.08273H9L4 4.58273V5.86649Z"/>
</mask>
<path d="M4 5.86649L4.21273 6.08273H5.5L9 1.08273V4.08273H10V0H6V1.08273H9L4 4.58273V5.86649Z" fill="#010002"/>
<path d="M4 5.86649H-996V415.288L-708.877 707.156L4 5.86649ZM4.21273 6.08273L-708.664 707.372L-414.809 1006.08H4.21273V6.08273ZM9 1.08273H1009V-998.917H9V1.08273ZM9 4.08273H-991V1004.08H9V4.08273ZM10 4.08273V1004.08H1010V4.08273H10ZM10 0H1010V-1000H10V0ZM6 0V-1000H-994V0H6ZM6 1.08273H-994V1001.08H6V1.08273ZM4 4.58273L-569.462 -814.649L-996 -516.073V4.58273H4ZM5.5 6.08273V1006.08H526.156L824.732 579.545L5.5 6.08273ZM-708.877 707.156L-708.664 707.372L717.089 -695.207L716.877 -695.423L-708.877 707.156ZM-991 1.08273V4.08273H1009V1.08273H-991ZM9 1004.08H10V-995.917H9V1004.08ZM1010 4.08273V0H-990V4.08273H1010ZM10 -1000H6V1000H10V-1000ZM-994 0V1.08273H1006V0H-994ZM6 1001.08H9V-998.917H6V1001.08ZM-564.462 -818.149L-569.462 -814.649L577.462 823.815L582.462 820.315L-564.462 -818.149ZM-996 4.58273V5.86649H1004V4.58273H-996ZM4.21273 1006.08H5.5V-993.917H4.21273V1006.08ZM824.732 579.545L828.232 574.545L-810.232 -572.38L-813.732 -567.38L824.732 579.545Z" fill="black" mask="url(#path-1-inside-1_20_173)"/>
<mask id="path-3-inside-2_20_173" fill="white">
<path d="M8 5.06718V9H1V2H5V1H0V10H9V5.06718H8Z"/>
</mask>
<path d="M8 5.06718V9H1V2H5V1H0V10H9V5.06718H8Z" fill="#010002"/>
<path d="M8 5.06718V4.06718H7V5.06718H8ZM8 9V10H9V9H8ZM1 9H0V10H1V9ZM1 2V1H0V2H1ZM5 2V3H6V2H5ZM5 1H6V0H5V1ZM0 1V0H-1V1H0ZM0 10H-1V11H0V10ZM9 10V11H10V10H9ZM9 5.06718H10V4.06718H9V5.06718ZM7 5.06718V9H9V5.06718H7ZM8 8H1V10H8V8ZM2 9V2H0V9H2ZM1 3H5V1H1V3ZM6 2V1H4V2H6ZM5 0H0V2H5V0ZM-1 1V10H1V1H-1ZM0 11H9V9H0V11ZM10 10V5.06718H8V10H10ZM9 4.06718H8V6.06718H9V4.06718Z" fill="black" mask="url(#path-3-inside-2_20_173)"/>
</svg>
